<svg width="120" height="120" viewBox="0 0 340 340" fill="none" xmlns="http://www.w3.org/2000/svg">
<circle id="Okrag" cx="150" cy="150" r="150" fill="#273877"/>
<path id="Tekst" d="M62.9751 117.377C62.9751 119.955 62.4681 122.389 61.4541 124.678C60.4401 126.938 59.1509 129.023 57.5864 130.936C56.0509 132.848 54.3561 134.586 52.502 136.15C50.6768 137.686 48.9385 139.019 47.2871 140.148C49.6048 140.351 51.908 140.916 54.1968 141.843C56.5145 142.741 58.5859 144.002 60.4111 145.624C62.2653 147.217 63.7573 149.159 64.8872 151.447C66.0461 153.707 66.6255 156.285 66.6255 159.183C66.6255 161.558 66.2778 163.702 65.5825 165.614C64.9162 167.497 64.0181 169.192 62.8882 170.699C61.7583 172.176 60.4691 173.451 59.0205 174.523C57.6009 175.595 56.1523 176.479 54.6748 177.174C53.1973 177.869 51.7342 178.376 50.2856 178.695C48.866 179.042 47.6058 179.216 46.5049 179.216C43.7236 179.216 41.4059 178.883 39.5518 178.217C37.7266 177.55 36.2635 176.739 35.1626 175.783C34.0907 174.798 33.3374 173.77 32.9028 172.698C32.4683 171.626 32.251 170.684 32.251 169.873C32.251 168.627 32.5117 167.439 33.0332 166.31C33.5837 165.151 34.3079 164.108 35.2061 163.181C36.1042 162.254 37.1471 161.442 38.335 160.747C39.5228 160.023 40.7541 159.472 42.0288 159.096L42.9414 160.53C41.1162 161.515 39.769 162.79 38.8999 164.354C38.0308 165.889 37.5962 167.439 37.5962 169.004C37.5962 169.873 37.77 170.786 38.1177 171.742C38.4943 172.669 39.0448 173.523 39.769 174.306C40.5223 175.088 41.4494 175.74 42.5503 176.261C43.6802 176.754 44.9984 177 46.5049 177C48.7067 177 50.7637 176.594 52.6758 175.783C54.5879 174.943 56.2393 173.799 57.6299 172.35C59.0495 170.873 60.1504 169.149 60.9326 167.179C61.7438 165.209 62.1494 163.079 62.1494 160.791C62.1494 158.444 61.6569 156.372 60.6719 154.576C59.7158 152.78 58.4266 151.273 56.8042 150.057C55.2108 148.811 53.3566 147.869 51.2417 147.232C49.1558 146.595 46.9829 146.276 44.7231 146.276C43.7961 146.276 42.8835 146.334 41.9854 146.45C41.0872 146.537 40.2326 146.667 39.4214 146.841C38.6392 146.986 37.9294 147.131 37.292 147.275C36.6546 147.42 36.1621 147.536 35.8145 147.623L35.3799 147.188L39.3779 140.974C39.6966 140.887 40.0588 140.786 40.4644 140.67C40.812 140.583 41.2321 140.496 41.7246 140.409C42.2171 140.293 42.7676 140.206 43.376 140.148C44.7666 139.308 46.2152 138.251 47.7217 136.976C49.2572 135.672 50.6478 134.18 51.8936 132.5C53.1683 130.791 54.2113 128.879 55.0225 126.764C55.8626 124.649 56.2827 122.346 56.2827 119.854C56.2827 115.653 55.2832 112.481 53.2842 110.337C51.2852 108.193 48.4315 107.121 44.7231 107.121C42.5793 107.121 40.4209 107.585 38.248 108.512C36.0752 109.41 33.9748 110.8 31.9468 112.684C29.9478 114.567 28.0646 116.942 26.2974 119.811C24.5591 122.679 23.0381 126.054 21.7344 129.936C20.4596 133.818 19.4456 138.236 18.6924 143.19C17.9391 148.145 17.5625 153.635 17.5625 159.661C17.5625 162.152 17.6639 164.455 17.8667 166.57C18.0985 168.685 18.4316 170.525 18.8662 172.089C19.3298 173.625 19.8947 174.827 20.561 175.696C21.2274 176.565 22.0096 177 22.9077 177C23.8058 177 24.5156 176.348 25.0371 175.044C25.5876 173.712 25.9932 171.988 26.2539 169.873C26.5436 167.729 26.7174 165.339 26.7754 162.703C26.8623 160.066 26.9058 157.415 26.9058 154.75C26.9058 150.694 26.8478 146.884 26.7319 143.321C26.616 139.728 26.4857 136.527 26.3408 133.717C26.2249 130.907 26.109 128.56 25.9932 126.677C25.8773 124.794 25.8049 123.533 25.7759 122.896L30.8169 121.375C30.9618 121.607 31.1646 122.302 31.4253 123.461C31.686 124.62 31.9468 126.155 32.2075 128.067C32.4683 129.951 32.6855 132.152 32.8594 134.673C33.0622 137.164 33.1636 139.859 33.1636 142.756C33.1636 147.652 33.0187 151.954 32.729 155.663C32.4683 159.342 32.0916 162.543 31.5991 165.267C31.1066 167.961 30.5272 170.206 29.8608 172.002C29.2235 173.799 28.5137 175.233 27.7314 176.305C26.9782 177.348 26.1815 178.086 25.3413 178.521C24.5301 178.985 23.7189 179.216 22.9077 179.216C21.1405 179.216 19.547 178.608 18.1274 177.391C16.7368 176.203 15.549 174.624 14.564 172.654C13.5789 170.655 12.8257 168.381 12.3042 165.832C11.7827 163.253 11.522 160.602 11.522 157.879C11.522 153.968 11.8841 149.926 12.6084 145.754C13.3327 141.583 14.4046 137.512 15.8242 133.543C17.2438 129.545 18.9966 125.764 21.0825 122.201C23.1685 118.608 25.5731 115.479 28.2964 112.814C31.0197 110.12 34.0472 107.99 37.3789 106.426C40.7396 104.832 44.3755 104.036 48.2866 104.036C50.5174 104.036 52.5309 104.34 54.3271 104.948C56.1523 105.528 57.7023 106.397 58.9771 107.556C60.2518 108.686 61.2368 110.076 61.9321 111.728C62.6274 113.379 62.9751 115.262 62.9751 117.377ZM109.344 158.748L108.866 159.661C107.881 161.631 106.562 163.21 104.911 164.397C103.289 165.556 101.521 166.31 99.6094 166.657C99.0879 168.135 98.4071 169.511 97.5669 170.786C96.7557 172.031 95.8141 173.118 94.7422 174.045C93.6992 174.972 92.5114 175.696 91.1787 176.218C89.875 176.739 88.4554 177 86.9199 177C84.6891 177 82.6756 176.536 80.8794 175.609C79.1121 174.653 77.6056 173.379 76.3599 171.785C75.1141 170.163 74.158 168.28 73.4917 166.136C72.8254 163.963 72.4922 161.645 72.4922 159.183C72.4922 157.039 72.7384 155.098 73.231 153.359C73.7235 151.592 74.3464 150.028 75.0996 148.666C75.8529 147.275 76.693 146.073 77.6201 145.059C78.5472 144.016 79.4598 143.161 80.3579 142.495C81.256 141.829 82.0672 141.336 82.7915 141.018C83.5448 140.67 84.1097 140.496 84.4863 140.496L85.0513 142.017C83.8634 142.886 82.806 144.103 81.8789 145.667C81.0677 147 80.3289 148.767 79.6626 150.969C79.0252 153.171 78.7065 155.909 78.7065 159.183C78.7065 161.182 78.8949 163.123 79.2715 165.006C79.6481 166.889 80.1986 168.555 80.9229 170.003C81.6471 171.452 82.5308 172.611 83.5737 173.48C84.6457 174.349 85.848 174.784 87.1807 174.784C89.0059 174.784 90.5124 174.059 91.7002 172.611C92.917 171.133 93.8151 169.12 94.3945 166.57C92.888 166.252 91.4539 165.658 90.0923 164.789C88.7306 163.919 87.5283 162.847 86.4854 161.573C85.4424 160.269 84.6022 158.777 83.9648 157.097C83.3564 155.416 83.0522 153.591 83.0522 151.621C83.0522 149.999 83.255 148.579 83.6606 147.362C84.0952 146.117 84.6602 145.088 85.3555 144.277C86.0508 143.437 86.8475 142.814 87.7456 142.408C88.6727 141.974 89.6432 141.756 90.6572 141.756C91.8451 141.756 93.0618 142.104 94.3076 142.799C95.5534 143.466 96.6833 144.48 97.6973 145.841C98.7113 147.174 99.5369 148.854 100.174 150.882C100.812 152.91 101.13 155.271 101.13 157.966C101.13 158.98 101.072 159.979 100.957 160.964C100.841 161.949 100.667 162.905 100.435 163.833C101.826 163.427 103.086 162.775 104.216 161.877C105.375 160.979 106.331 159.791 107.084 158.313L107.562 157.401L109.344 158.748ZM85.9204 151.273C85.9204 152.983 86.1522 154.562 86.6157 156.01C87.1082 157.43 87.7601 158.69 88.5713 159.791C89.3825 160.863 90.3241 161.761 91.396 162.485C92.4679 163.21 93.6123 163.717 94.8291 164.006C94.974 163.195 95.0609 162.355 95.0898 161.486C95.1478 160.588 95.1768 159.675 95.1768 158.748C95.1768 156.691 95.0174 154.837 94.6987 153.186C94.38 151.505 93.96 150.086 93.4385 148.927C92.917 147.739 92.3086 146.826 91.6133 146.189C90.918 145.552 90.2082 145.233 89.4839 145.233C88.4989 145.233 87.6587 145.769 86.9634 146.841C86.2681 147.884 85.9204 149.361 85.9204 151.273ZM144.022 158.748L143.544 159.661C142.559 161.631 141.241 163.21 139.59 164.397C137.967 165.556 136.2 166.31 134.288 166.657C133.767 168.135 133.086 169.511 132.246 170.786C131.434 172.031 130.493 173.118 129.421 174.045C128.378 174.972 127.19 175.696 125.857 176.218C124.554 176.739 123.134 177 121.599 177C119.368 177 117.354 176.536 115.558 175.609C113.791 174.653 112.284 173.379 111.039 171.785C109.793 170.163 108.837 168.28 108.17 166.136C107.504 163.963 107.171 161.645 107.171 159.183C107.171 157.039 107.417 155.098 107.91 153.359C108.402 151.592 109.025 150.028 109.778 148.666C110.532 147.275 111.372 146.073 112.299 145.059C113.226 144.016 114.139 143.161 115.037 142.495C115.935 141.829 116.746 141.336 117.47 141.018C118.223 140.67 118.788 140.496 119.165 140.496L119.73 142.017C118.542 142.886 117.485 144.103 116.558 145.667C115.746 147 115.008 148.767 114.341 150.969C113.704 153.171 113.385 155.909 113.385 159.183C113.385 161.182 113.574 163.123 113.95 165.006C114.327 166.889 114.877 168.555 115.602 170.003C116.326 171.452 117.209 172.611 118.252 173.48C119.324 174.349 120.527 174.784 121.859 174.784C123.685 174.784 125.191 174.059 126.379 172.611C127.596 171.133 128.494 169.12 129.073 166.57C127.567 166.252 126.133 165.658 124.771 164.789C123.409 163.919 122.207 162.847 121.164 161.573C120.121 160.269 119.281 158.777 118.644 157.097C118.035 155.416 117.731 153.591 117.731 151.621C117.731 149.999 117.934 148.579 118.339 147.362C118.774 146.117 119.339 145.088 120.034 144.277C120.729 143.437 121.526 142.814 122.424 142.408C123.351 141.974 124.322 141.756 125.336 141.756C126.524 141.756 127.741 142.104 128.986 142.799C130.232 143.466 131.362 144.48 132.376 145.841C133.39 147.174 134.216 148.854 134.853 150.882C135.49 152.91 135.809 155.271 135.809 157.966C135.809 158.98 135.751 159.979 135.635 160.964C135.519 161.949 135.346 162.905 135.114 163.833C136.504 163.427 137.765 162.775 138.895 161.877C140.053 160.979 141.009 159.791 141.763 158.313L142.241 157.401L144.022 158.748ZM120.599 151.273C120.599 152.983 120.831 154.562 121.294 156.01C121.787 157.43 122.439 158.69 123.25 159.791C124.061 160.863 125.003 161.761 126.075 162.485C127.147 163.21 128.291 163.717 129.508 164.006C129.653 163.195 129.74 162.355 129.769 161.486C129.826 160.588 129.855 159.675 129.855 158.748C129.855 156.691 129.696 154.837 129.377 153.186C129.059 151.505 128.639 150.086 128.117 148.927C127.596 147.739 126.987 146.826 126.292 146.189C125.597 145.552 124.887 145.233 124.163 145.233C123.178 145.233 122.337 145.769 121.642 146.841C120.947 147.884 120.599 149.361 120.599 151.273ZM179.049 158.748L178.614 159.661C177.397 162.094 176.239 164.368 175.138 166.483C174.037 168.598 172.936 170.438 171.835 172.002C170.734 173.567 169.604 174.798 168.445 175.696C167.315 176.565 166.099 177 164.795 177C163.491 177 162.216 176.652 160.971 175.957C159.725 175.262 158.479 174.291 157.233 173.045C156.017 171.8 154.785 170.351 153.54 168.7C152.323 167.019 151.062 165.194 149.759 163.224L148.238 163.485C148.18 166.034 148.093 168.338 147.977 170.395C147.861 172.423 147.716 174.088 147.542 175.392C147.456 175.972 147.209 176.392 146.804 176.652C146.427 176.884 145.906 177 145.239 177C144.457 177 143.805 176.899 143.284 176.696C142.762 176.493 142.357 176.247 142.067 175.957C141.748 175.638 141.531 175.305 141.415 174.958C141.27 174.581 141.198 174.219 141.198 173.871C141.198 172.017 141.502 169.714 142.11 166.961V144.494C142.11 138.932 142.4 134.122 142.979 130.066C143.559 125.981 144.341 122.606 145.326 119.941C146.311 117.247 147.456 115.262 148.759 113.987C150.092 112.684 151.497 112.032 152.975 112.032C154.568 112.032 155.698 112.553 156.364 113.596C157.06 114.61 157.407 116.015 157.407 117.812C157.407 119.376 157.175 121.389 156.712 123.852C156.248 126.286 155.597 128.965 154.756 131.892C153.945 134.818 152.989 137.874 151.888 141.061C150.787 144.219 149.599 147.304 148.325 150.317V151.273C149.136 149.97 150.077 148.724 151.149 147.536C152.25 146.348 153.424 145.305 154.669 144.407C155.915 143.48 157.19 142.756 158.494 142.234C159.826 141.684 161.13 141.409 162.405 141.409C163.535 141.409 164.563 141.568 165.49 141.887C166.446 142.205 167.272 142.669 167.967 143.277C168.663 143.886 169.199 144.653 169.575 145.581C169.952 146.479 170.14 147.522 170.14 148.709C170.14 149.926 169.865 151.143 169.314 152.36C168.793 153.577 167.953 154.75 166.794 155.88C165.664 157.01 164.201 158.082 162.405 159.096C160.609 160.081 158.436 160.95 155.886 161.703C156.06 161.964 156.35 162.398 156.755 163.007C157.161 163.615 157.639 164.311 158.189 165.093C158.769 165.846 159.392 166.643 160.058 167.483C160.724 168.294 161.405 169.047 162.101 169.743C162.825 170.409 163.535 170.974 164.23 171.438C164.925 171.872 165.563 172.089 166.142 172.089C166.924 172.089 167.721 171.771 168.532 171.133C169.343 170.467 170.184 169.54 171.053 168.352C171.951 167.135 172.878 165.687 173.834 164.006C174.79 162.297 175.79 160.399 176.833 158.313L177.267 157.401L179.049 158.748ZM148.325 155.011C148.325 155.677 148.31 156.271 148.281 156.792C148.281 157.285 148.281 157.778 148.281 158.27C148.281 158.734 148.267 159.212 148.238 159.704C148.238 160.197 148.238 160.747 148.238 161.355C151.193 160.921 153.684 160.341 155.712 159.617C157.769 158.893 159.435 158.053 160.71 157.097C161.985 156.141 162.912 155.098 163.491 153.968C164.071 152.809 164.36 151.592 164.36 150.317C164.36 149.651 164.244 149.014 164.013 148.405C163.81 147.768 163.506 147.217 163.1 146.754C162.694 146.261 162.188 145.87 161.579 145.581C161 145.291 160.348 145.146 159.624 145.146C158.61 145.146 157.581 145.421 156.538 145.972C155.524 146.493 154.51 147.203 153.496 148.101C152.511 148.999 151.569 150.057 150.671 151.273C149.802 152.461 149.02 153.707 148.325 155.011ZM152.149 114.248C151.541 114.248 151.005 114.842 150.541 116.03C150.106 117.218 149.73 119.072 149.411 121.592C149.092 124.084 148.832 127.271 148.629 131.153C148.426 135.006 148.267 139.612 148.151 144.972C149.368 141.756 150.353 138.743 151.106 135.933C151.859 133.094 152.439 130.544 152.844 128.285C153.279 125.996 153.569 124.011 153.713 122.331C153.858 120.622 153.931 119.26 153.931 118.246C153.931 116.711 153.786 115.668 153.496 115.117C153.235 114.538 152.786 114.248 152.149 114.248ZM210.251 127.676C210.917 127.184 211.511 126.59 212.033 125.895C212.583 125.199 213.047 124.446 213.423 123.635C213.8 122.824 214.09 121.969 214.292 121.071C214.495 120.173 214.597 119.26 214.597 118.333C214.597 116.942 214.35 115.566 213.858 114.205C213.394 112.814 212.627 111.568 211.555 110.467C210.512 109.337 209.15 108.425 207.47 107.729C205.789 107.034 203.747 106.687 201.342 106.687C198.677 106.687 196.156 107.121 193.781 107.99C191.405 108.859 189.319 110.033 187.523 111.51C185.756 112.988 184.351 114.697 183.308 116.638C182.265 118.579 181.743 120.607 181.743 122.722C181.743 124.953 182.265 126.938 183.308 128.676C184.38 130.385 185.77 131.95 187.479 133.369C189.218 134.76 191.188 136.049 193.39 137.237C195.591 138.425 197.837 139.598 200.125 140.757C202.414 141.916 204.66 143.132 206.861 144.407C209.063 145.653 211.019 147.058 212.728 148.623C214.466 150.187 215.857 151.94 216.9 153.881C217.972 155.822 218.508 158.067 218.508 160.617C218.508 163.05 217.928 165.382 216.77 167.613C215.611 169.844 214.017 171.829 211.989 173.567C209.961 175.276 207.571 176.638 204.819 177.652C202.096 178.695 199.155 179.216 195.997 179.216C192.463 179.216 189.536 178.825 187.219 178.043C184.93 177.29 183.105 176.334 181.743 175.175C180.41 174.016 179.483 172.77 178.962 171.438C178.44 170.076 178.18 168.816 178.18 167.657C178.18 166.237 178.397 164.962 178.832 163.833C179.295 162.674 179.903 161.645 180.657 160.747C181.41 159.82 182.25 159.023 183.177 158.357C184.133 157.662 185.104 157.082 186.089 156.619C187.103 156.126 188.073 155.735 189 155.445C189.957 155.127 190.811 154.895 191.564 154.75L191.999 156.966C191.651 157.082 191.014 157.372 190.087 157.835C189.189 158.27 188.247 158.922 187.262 159.791C186.277 160.631 185.408 161.689 184.655 162.963C183.902 164.238 183.525 165.745 183.525 167.483C183.525 168.671 183.771 169.83 184.264 170.959C184.785 172.089 185.553 173.103 186.567 174.001C187.581 174.9 188.827 175.624 190.304 176.174C191.782 176.725 193.506 177 195.476 177C197.851 177 199.923 176.783 201.69 176.348C203.486 175.885 205.022 175.291 206.296 174.566C207.6 173.842 208.658 173.016 209.469 172.089C210.309 171.133 210.961 170.148 211.424 169.134C211.917 168.12 212.25 167.121 212.424 166.136C212.627 165.122 212.728 164.209 212.728 163.398C212.728 161.196 212.221 159.27 211.207 157.618C210.193 155.938 208.846 154.446 207.166 153.142C205.514 151.809 203.631 150.607 201.516 149.535C199.401 148.434 197.228 147.348 194.998 146.276C192.796 145.204 190.637 144.089 188.522 142.93C186.408 141.771 184.51 140.453 182.83 138.975C181.178 137.498 179.846 135.817 178.832 133.934C177.818 132.022 177.311 129.791 177.311 127.242C177.311 123.823 178.02 120.694 179.44 117.855C180.86 114.987 182.772 112.539 185.176 110.511C187.581 108.454 190.362 106.86 193.52 105.73C196.707 104.601 200.053 104.036 203.559 104.036C206.543 104.036 209.092 104.383 211.207 105.079C213.322 105.774 215.046 106.687 216.378 107.816C217.74 108.946 218.725 110.236 219.333 111.684C219.971 113.133 220.29 114.61 220.29 116.117C220.29 117.913 219.971 119.55 219.333 121.027C218.725 122.505 217.972 123.823 217.074 124.982C216.205 126.112 215.263 127.068 214.249 127.85C213.235 128.603 212.337 129.139 211.555 129.458L210.251 127.676ZM236.456 134.977C236.456 132.862 236.644 130.631 237.021 128.285C237.397 125.909 237.977 123.577 238.759 121.288C239.57 118.999 240.569 116.812 241.757 114.726C242.974 112.64 244.408 110.815 246.06 109.25C247.711 107.657 249.58 106.397 251.666 105.47C253.78 104.514 256.127 104.036 258.706 104.036C261.342 104.036 263.747 104.485 265.919 105.383C268.092 106.252 270.033 107.483 271.743 109.077C273.452 110.641 274.944 112.51 276.219 114.683C277.522 116.855 278.594 119.231 279.435 121.81C280.275 124.388 280.898 127.126 281.303 130.023C281.738 132.891 281.955 135.817 281.955 138.801C281.955 142.104 281.68 145.392 281.129 148.666C280.608 151.94 279.811 155.083 278.739 158.096C277.696 161.08 276.378 163.861 274.785 166.44C273.191 169.018 271.337 171.249 269.222 173.132C267.107 175.015 264.717 176.493 262.052 177.565C259.415 178.666 256.518 179.216 253.36 179.216C250.405 179.216 247.639 178.753 245.06 177.826C242.482 176.928 240.12 175.653 237.977 174.001C235.833 172.321 233.921 170.337 232.24 168.048C230.56 165.73 229.14 163.195 227.981 160.443C226.852 157.662 225.982 154.707 225.374 151.578C224.766 148.42 224.461 145.175 224.461 141.843C224.461 138.569 224.751 135.528 225.331 132.717C225.939 129.907 226.736 127.314 227.721 124.938C228.706 122.563 229.821 120.404 231.067 118.463C232.342 116.522 233.66 114.784 235.021 113.249C236.383 111.713 237.73 110.38 239.063 109.25C240.396 108.121 241.627 107.179 242.757 106.426L244.625 107.686C242.626 109.308 240.816 111.307 239.193 113.683C237.6 116.059 236.224 118.724 235.065 121.679C233.935 124.634 233.066 127.821 232.458 131.24C231.849 134.629 231.545 138.164 231.545 141.843C231.545 148.072 232.153 153.403 233.37 157.835C234.616 162.268 236.253 165.904 238.281 168.743C240.309 171.582 242.626 173.668 245.234 175.001C247.87 176.334 250.579 177 253.36 177C256.373 177 259.169 176.334 261.748 175.001C264.326 173.668 266.557 171.582 268.44 168.743C270.352 165.904 271.844 162.268 272.916 157.835C274.017 153.403 274.567 148.072 274.567 141.843C274.567 135.875 274.104 130.689 273.177 126.286C272.279 121.882 271.033 118.246 269.439 115.378C267.875 112.481 266.035 110.322 263.92 108.903C261.806 107.483 259.56 106.773 257.185 106.773C255.33 106.773 253.665 107.194 252.187 108.034C250.709 108.874 249.406 110.033 248.276 111.51C247.175 112.959 246.219 114.668 245.408 116.638C244.597 118.579 243.93 120.665 243.409 122.896C242.916 125.127 242.554 127.43 242.322 129.806C242.09 132.152 241.975 134.47 241.975 136.759C241.975 139.482 242.062 141.785 242.235 143.668C242.409 145.523 242.612 147.029 242.844 148.188C243.104 149.55 243.409 150.636 243.756 151.447L241.192 152.099C240.787 151.636 240.309 150.984 239.758 150.144C239.237 149.303 238.73 148.202 238.237 146.841C237.745 145.479 237.325 143.828 236.977 141.887C236.629 139.946 236.456 137.642 236.456 134.977Z" fill="#FEF9F9"/>
</svg>
