<svg width="930" height="760" viewBox="230 -50 930 760"  fill="none" xmlns="http://www.w3.org/2000/svg">

<g id="Kubek">
<g id="GornyLisc">
<path id="Vector" d="M659.362 7.54874C655.087 7.79247 650.963 9.23335 647.454 11.7098C643.944 14.1863 641.187 17.6004 639.493 21.5694C634.524 33.6899 640.922 47.9273 650.525 56.7657C660.128 65.6041 672.464 70.6561 683.673 77.2965C698.728 86.2157 712.256 98.5971 719.788 114.491C727.321 130.384 728.122 150.071 719.268 165.255C711.049 179.348 696.106 187.782 681.853 195.561" stroke="#3F3D56" stroke-miterlimit="10"/>
<path id="Vector_2" d="M672.02 17.2083C681.714 17.2083 689.573 13.3561 689.573 8.60414C689.573 3.8522 681.714 0 672.02 0C662.326 0 654.467 3.8522 654.467 8.60414C654.467 13.3561 662.326 17.2083 672.02 17.2083Z" fill="#57B894"/>
<path id="Vector_3" d="M686.062 73.8943C695.756 73.8943 703.615 70.0421 703.615 65.2902C703.615 60.5383 695.756 56.6861 686.062 56.6861C676.368 56.6861 668.509 60.5383 668.509 65.2902C668.509 70.0421 676.368 73.8943 686.062 73.8943Z" fill="#57B894"/>
<path id="Vector_4" d="M653.966 83.0046C663.66 83.0046 671.518 79.1524 671.518 74.4005C671.518 69.6485 663.66 65.7963 653.966 65.7963C644.271 65.7963 636.413 69.6485 636.413 74.4005C636.413 79.1524 644.271 83.0046 653.966 83.0046Z" fill="#57B894"/>
<path id="Vector_5" d="M739.222 130.58C748.916 130.58 756.774 126.728 756.774 121.976C756.774 117.224 748.916 113.372 739.222 113.372C729.528 113.372 721.669 117.224 721.669 121.976C721.669 126.728 729.528 130.58 739.222 130.58Z" fill="#57B894"/>
<path id="Vector_6" d="M704.116 130.58C713.81 130.58 721.669 126.728 721.669 121.976C721.669 117.224 713.81 113.372 704.116 113.372C694.422 113.372 686.564 117.224 686.564 121.976C686.564 126.728 694.422 130.58 704.116 130.58Z" fill="#57B894"/>
</g>
<g id="PrawyLisc">
<path id="Vector_7" d="M752.121 289.754C748.184 288.055 743.855 287.496 739.62 288.141C735.386 288.785 731.413 290.608 728.147 293.403C718.359 302.033 717.821 317.656 722.532 329.881C727.243 342.106 736.07 352.164 743.186 363.139C752.746 377.881 759.412 395.04 759.162 412.656C758.911 430.272 750.96 448.268 736.342 457.899C722.774 466.838 705.673 467.692 689.48 468.269" stroke="#3F3D56" stroke-miterlimit="10"/>
<path id="Vector_8" d="M778.72 304.249C780.812 299.992 775.468 293.016 766.784 288.669C758.1 284.321 749.363 284.247 747.271 288.504C745.178 292.761 750.522 299.737 759.206 304.084C767.891 308.432 776.627 308.505 778.72 304.249Z" fill="#57B894"/>
<path id="Vector_9" d="M733.573 355.094C735.666 350.837 730.322 343.861 721.638 339.514C712.953 335.166 704.217 335.093 702.125 339.349C700.032 343.606 705.376 350.582 714.06 354.929C722.745 359.277 731.481 359.351 733.573 355.094Z" fill="#57B894"/>
<path id="Vector_10" d="M766.338 361.327C768.43 357.07 763.087 350.095 754.402 345.747C745.718 341.4 736.982 341.326 734.889 345.583C732.797 349.84 738.141 356.815 746.825 361.163C755.509 365.511 764.245 365.584 766.338 361.327Z" fill="#57B894"/>
<path id="Vector_11" d="M757.55 420.206C759.643 415.949 754.299 408.973 745.615 404.626C736.931 400.278 728.194 400.204 726.102 404.461C724.009 408.718 729.353 415.694 738.037 420.041C746.722 424.389 755.458 424.463 757.55 420.206Z" fill="#57B894"/>
<path id="Vector_12" d="M788.999 435.95C791.091 431.693 785.748 424.718 777.063 420.37C768.379 416.022 759.643 415.949 757.55 420.206C755.458 424.463 760.802 431.438 769.486 435.786C778.17 440.133 786.906 440.207 788.999 435.95Z" fill="#57B894"/>
</g>
<g id="LewyLisc">
<path id="Vector_13" d="M298.902 370.898C301.939 367.851 305.757 365.719 309.928 364.739C314.099 363.76 318.458 363.972 322.516 365.353C334.77 369.724 340.988 384.042 341.084 397.158C341.18 410.275 336.658 422.912 334.062 435.764C330.574 453.027 330.658 471.457 337.338 487.735C344.017 504.012 357.992 517.771 375.101 521.272C390.981 524.522 407.186 518.941 422.445 513.441" stroke="#3F3D56" stroke-miterlimit="10"/>
<path id="Vector_14" d="M297.562 386.856C304.041 379.579 306.454 371.105 302.952 367.929C299.449 364.753 291.358 368.077 284.878 375.355C278.399 382.632 275.986 391.106 279.489 394.282C282.991 397.458 291.083 394.133 297.562 386.856Z" fill="#57B894"/>
<path id="Vector_15" d="M329.957 435.284C336.436 428.006 338.849 419.532 335.347 416.356C331.845 413.18 323.753 416.505 317.274 423.782C310.795 431.06 308.382 439.534 311.884 442.71C315.386 445.886 323.478 442.561 329.957 435.284Z" fill="#57B894"/>
<path id="Vector_16" d="M358.124 417.278C364.603 410.001 367.016 401.527 363.514 398.351C360.011 395.175 351.92 398.5 345.44 405.777C338.961 413.054 336.548 421.528 340.051 424.704C343.553 427.88 351.645 424.555 358.124 417.278Z" fill="#57B894"/>
<path id="Vector_17" d="M359.671 486.723C366.15 479.446 368.563 470.972 365.061 467.796C361.559 464.62 353.467 467.945 346.988 475.222C340.509 482.499 338.096 490.974 341.598 494.15C345.1 497.326 353.192 494.001 359.671 486.723Z" fill="#57B894"/>
<path id="Vector_18" d="M336.208 513.077C342.687 505.8 345.1 497.326 341.598 494.15C338.096 490.974 330.004 494.298 323.525 501.576C317.046 508.853 314.633 517.327 318.135 520.503C321.637 523.679 329.729 520.354 336.208 513.077Z" fill="#57B894"/>
</g>
<g id="Kubek">
<path id="Vector_19" d="M702.592 254.035L699.833 274.452L682.782 400.436L654.858 606.754L647.867 658.409C647.335 662.352 645.404 665.967 642.433 668.584C639.462 671.2 635.652 672.642 631.709 672.641H445.499C441.562 672.642 437.758 671.206 434.788 668.598C431.818 665.989 429.883 662.385 429.341 658.449L422.229 606.754L393.834 400.436L376.482 274.361L373.693 254.075C373.372 251.745 373.548 249.372 374.212 247.116C374.876 244.861 376.012 242.776 377.543 241.001C379.073 239.226 380.963 237.803 383.085 236.828C385.206 235.853 387.511 235.348 389.842 235.348H686.433C688.761 235.349 691.062 235.853 693.181 236.826C695.299 237.798 697.188 239.217 698.718 240.987C700.249 242.757 701.386 244.837 702.054 247.088C702.723 249.338 702.906 251.707 702.592 254.035V254.035Z" fill="#FFFF1B"/>
<path id="Vector_29" opacity="0.1" d="M701.664 245.977H701.666C701.662 245.965 701.656 245.953 701.651 245.941C701.222 244.808 700.67 243.726 700.005 242.716L700.003 242.713C699.806 242.415 699.598 242.126 699.383 241.842C699.312 241.747 699.238 241.654 699.164 241.56C698.539 240.768 697.843 240.036 697.085 239.373C696.916 239.224 696.746 239.078 696.57 238.937C696.374 238.778 696.176 238.623 695.972 238.473C695.717 238.286 695.453 238.11 695.187 237.938C694.977 237.802 694.767 237.669 694.55 237.543C694.216 237.348 693.874 237.165 693.525 236.993C693.359 236.911 693.19 236.836 693.02 236.76C692.687 236.61 692.348 236.472 692.002 236.346C691.863 236.295 691.727 236.239 691.586 236.192C691.108 236.031 690.62 235.892 690.123 235.776C690.001 235.747 689.877 235.727 689.754 235.702C689.347 235.617 688.934 235.547 688.516 235.493C688.365 235.474 688.214 235.454 688.062 235.439C687.526 235.385 686.985 235.349 686.434 235.349L686.433 235.348H389.842C387.513 235.356 385.213 235.866 383.096 236.843C380.978 237.821 379.092 239.243 377.563 241.016C376.034 242.788 374.897 244.87 374.23 247.121C373.563 249.373 373.379 251.742 373.692 254.071L374.163 257.493L376.482 274.361L376.485 274.361L393.835 400.436H393.834L416.611 565.93L429.343 658.447C429.885 662.382 431.818 665.986 434.787 668.595C437.756 671.204 441.56 672.641 445.496 672.641H454.333C453.896 671.491 453.588 670.295 453.415 669.076L444.839 606.754H654.858L682.782 400.436H416.445L399.372 276.379C499.39 284.565 599.926 283.92 699.833 274.452L702.592 254.035C702.959 251.313 702.64 248.542 701.664 245.977Z" fill="black"/>
</g>
<g id="OkoL">
<path id="Vector_20" d="M460.885 391.741C485.259 391.741 505.018 371.8 505.018 347.202C505.018 322.604 485.259 302.663 460.885 302.663C436.512 302.663 416.753 322.604 416.753 347.202C416.753 371.8 436.512 391.741 460.885 391.741Z" fill="#2F2E41"/>
<path id="Vector_21" d="M476.934 328.982C479.703 328.982 481.949 326.716 481.949 323.92C481.949 321.125 479.703 318.859 476.934 318.859C474.164 318.859 471.919 321.125 471.919 323.92C471.919 326.716 474.164 328.982 476.934 328.982Z" fill="white"/>
<path id="Vector_22" d="M458.879 359.349C465.527 359.349 470.916 353.911 470.916 347.202C470.916 340.494 465.527 335.055 458.879 335.055C452.232 335.055 446.843 340.494 446.843 347.202C446.843 353.911 452.232 359.349 458.879 359.349Z" fill="white"/>
</g>
<g id="OkoP">
<path id="Vector_23" d="M617.356 391.741C641.729 391.741 661.488 371.8 661.488 347.202C661.488 322.604 641.729 302.663 617.356 302.663C592.982 302.663 573.223 322.604 573.223 347.202C573.223 371.8 592.982 391.741 617.356 391.741Z" fill="#2F2E41"/>
<path id="Vector_24" d="M635.41 328.982C638.18 328.982 640.425 326.716 640.425 323.92C640.425 321.125 638.18 318.859 635.41 318.859C632.64 318.859 630.395 321.125 630.395 323.92C630.395 326.716 632.64 328.982 635.41 328.982Z" fill="white"/>
<path id="Vector_25" d="M617.356 359.349C624.003 359.349 629.392 353.911 629.392 347.202C629.392 340.494 624.003 335.055 617.356 335.055C610.708 335.055 605.319 340.494 605.319 347.202C605.319 353.911 610.708 359.349 617.356 359.349Z" fill="white"/>
</g>
<g id="Czapka">
<path id="Vector_26" opacity="0.1" d="M684.056 206.519V218.889C684.056 223.254 682.338 227.441 679.279 230.528C676.221 233.614 672.072 235.348 667.747 235.348H409.491C405.166 235.348 401.017 233.614 397.959 230.528C394.9 227.441 393.182 223.254 393.182 218.889V206.55C489.921 215.852 587.319 215.842 684.056 206.519V206.519Z" fill="black"/>
<path id="Vector_27" d="M667.747 180.687H409.491C400.484 180.687 393.182 188.056 393.182 197.146V218.889C393.182 227.979 400.484 235.348 409.491 235.348H667.747C676.754 235.348 684.056 227.979 684.056 218.889V197.146C684.056 188.056 676.754 180.687 667.747 180.687Z" fill="#2F2E41"/>
<path id="Vector_28" d="M725.923 262.679C601.423 276.394 475.815 276.394 351.315 262.679C346.99 262.679 342.842 260.945 339.784 257.859C336.725 254.772 335.007 250.586 335.007 246.221V224.476C335.007 220.111 336.725 215.925 339.784 212.838C342.842 209.752 346.99 208.018 351.315 208.018C475.716 223.454 601.522 223.454 725.923 208.018C730.248 208.018 734.396 209.752 737.454 212.838C740.513 215.925 742.231 220.111 742.231 224.476V246.221C742.231 250.586 740.513 254.772 737.454 257.859C734.396 260.945 730.248 262.679 725.923 262.679V262.679Z" fill="#2F2E41"/>
</g>
<g id="UchwytBuzia">
<path id="Vector_30" d="M662.526 599.253H411.787C409.536 599.253 407.359 598.442 405.647 596.967C403.935 595.492 402.801 593.449 402.448 591.206L375.36 418.977C375.145 417.614 375.226 416.22 375.597 414.892C375.968 413.564 376.62 412.333 377.507 411.284C378.395 410.235 379.498 409.392 380.739 408.814C381.981 408.236 383.332 407.937 384.699 407.937H691.42C692.795 407.937 694.154 408.24 695.402 408.825C696.649 409.409 697.755 410.261 698.643 411.321C699.531 412.382 700.179 413.625 700.541 414.963C700.904 416.302 700.973 417.705 700.744 419.074L671.849 591.303C671.476 593.526 670.335 595.544 668.629 596.999C666.922 598.454 664.76 599.253 662.526 599.253Z" fill="#2F2E41"/>
<path id="Vector_31" d="M633.995 476.488C635.177 476.706 636.279 477.242 637.185 478.039C638.09 478.836 638.766 479.865 639.141 481.017C639.516 482.169 639.577 483.402 639.316 484.586C639.055 485.77 638.482 486.861 637.659 487.744C621.75 504.858 583.177 540.542 538.118 540.542C493.059 540.542 454.485 504.858 438.576 487.744C437.753 486.861 437.18 485.77 436.919 484.586C436.658 483.402 436.719 482.169 437.094 481.017C437.469 479.865 438.145 478.836 439.051 478.039C439.956 477.242 441.058 476.706 442.241 476.488C505.626 464.717 570.609 464.717 633.994 476.488H633.995Z" fill="#FFFF1B"/>
<path id="Vector_32" d="M588.266 487.16C589.488 487.357 590.631 487.892 591.569 488.705C592.507 489.518 593.203 490.579 593.58 491.768C593.956 492.956 593.998 494.227 593.702 495.439C593.405 496.651 592.781 497.756 591.899 498.631C581.125 509.232 561.074 525.217 538.118 525.217C515.161 525.217 495.11 509.232 484.337 498.631C483.455 497.756 482.83 496.651 482.534 495.439C482.237 494.227 482.279 492.956 482.655 491.768C483.032 490.579 483.728 489.518 484.666 488.705C485.604 487.892 486.747 487.357 487.969 487.16C521.174 481.594 555.061 481.594 588.266 487.16Z" fill="white"/>
</g>
</g>
</svg>
