<svg width="120" height="120" viewBox="0 0 340 340" fill="none" xmlns="http://www.w3.org/2000/svg">
<g id="Okrag" filter="url(#filter0_bf)">
<circle cx="169" cy="169" r="150" fill="#273877"/>
<circle cx="169" cy="169" r="154" stroke="black" stroke-opacity="0.27" stroke-width="8" stroke-linecap="round"/>
</g>
<g id="Tekst">
<path id="B" d="M105.078 122.93C105.078 126.522 104.372 129.913 102.959 133.102C101.546 136.25 99.75 139.156 97.5703 141.82C95.431 144.484 93.0697 146.906 90.4863 149.086C87.9434 151.225 85.5215 153.082 83.2207 154.656C86.4499 154.939 89.6589 155.726 92.8477 157.018C96.0768 158.269 98.9629 160.025 101.506 162.285C104.089 164.505 106.168 167.21 107.742 170.398C109.357 173.547 110.164 177.139 110.164 181.176C110.164 184.486 109.68 187.473 108.711 190.137C107.783 192.76 106.531 195.122 104.957 197.221C103.383 199.279 101.587 201.055 99.5684 202.549C97.5905 204.042 95.5723 205.273 93.5137 206.242C91.4551 207.211 89.4167 207.917 87.3984 208.361C85.4206 208.846 83.6647 209.088 82.1309 209.088C78.2559 209.088 75.0267 208.624 72.4434 207.695C69.9004 206.767 67.862 205.637 66.3281 204.305C64.8346 202.932 63.7852 201.499 63.1797 200.006C62.5742 198.512 62.2715 197.201 62.2715 196.07C62.2715 194.335 62.6348 192.68 63.3613 191.105C64.1283 189.491 65.1374 188.038 66.3887 186.746C67.64 185.454 69.0931 184.324 70.748 183.355C72.403 182.346 74.1185 181.579 75.8945 181.055L77.166 183.053C74.623 184.425 72.7461 186.201 71.5352 188.381C70.3242 190.52 69.7188 192.68 69.7188 194.859C69.7188 196.07 69.9609 197.342 70.4453 198.674C70.9701 199.965 71.737 201.156 72.7461 202.246C73.7956 203.336 75.0872 204.244 76.6211 204.971C78.1953 205.657 80.0319 206 82.1309 206C85.1986 206 88.0645 205.435 90.7285 204.305C93.3926 203.134 95.6934 201.54 97.6309 199.521C99.6087 197.463 101.143 195.061 102.232 192.316C103.363 189.572 103.928 186.605 103.928 183.416C103.928 180.146 103.242 177.26 101.869 174.758C100.537 172.255 98.7409 170.156 96.4805 168.461C94.2604 166.725 91.6771 165.413 88.7305 164.525C85.8242 163.637 82.7969 163.193 79.6484 163.193C78.3568 163.193 77.0853 163.274 75.834 163.436C74.5827 163.557 73.3919 163.738 72.2617 163.98C71.1719 164.182 70.1829 164.384 69.2949 164.586C68.4069 164.788 67.7207 164.949 67.2363 165.07L66.6309 164.465L72.2012 155.807C72.6452 155.686 73.1497 155.544 73.7148 155.383C74.1992 155.262 74.7845 155.141 75.4707 155.02C76.1569 154.858 76.9238 154.737 77.7715 154.656C79.709 153.486 81.7272 152.012 83.8262 150.236C85.9655 148.42 87.903 146.341 89.6387 144C91.4147 141.618 92.8678 138.954 93.998 136.008C95.1686 133.061 95.7539 129.852 95.7539 126.381C95.7539 120.528 94.3613 116.108 91.5762 113.121C88.791 110.134 84.8151 108.641 79.6484 108.641C76.6615 108.641 73.6543 109.286 70.627 110.578C67.5996 111.829 64.6732 113.767 61.8477 116.391C59.0625 119.014 56.4388 122.324 53.9766 126.32C51.5547 130.316 49.4355 135.019 47.6191 140.428C45.8431 145.837 44.4303 151.992 43.3809 158.895C42.3314 165.797 41.8066 173.446 41.8066 181.842C41.8066 185.313 41.9479 188.522 42.2305 191.469C42.5534 194.415 43.0176 196.979 43.623 199.158C44.2689 201.298 45.056 202.973 45.9844 204.184C46.9128 205.395 48.0026 206 49.2539 206C50.5052 206 51.4941 205.092 52.2207 203.275C52.9876 201.419 53.5527 199.017 53.916 196.07C54.3197 193.083 54.5618 189.753 54.6426 186.08C54.7637 182.407 54.8242 178.714 54.8242 175C54.8242 169.349 54.7435 164.041 54.582 159.076C54.4206 154.071 54.2389 149.611 54.0371 145.695C53.8757 141.78 53.7142 138.51 53.5527 135.887C53.3913 133.263 53.2904 131.507 53.25 130.619L60.2734 128.5C60.4753 128.823 60.7578 129.792 61.1211 131.406C61.4844 133.021 61.8477 135.16 62.2109 137.824C62.5742 140.448 62.877 143.516 63.1191 147.027C63.4017 150.499 63.543 154.253 63.543 158.289C63.543 165.111 63.3411 171.105 62.9375 176.271C62.5742 181.398 62.0495 185.858 61.3633 189.652C60.6771 193.406 59.8698 196.535 58.9414 199.037C58.0534 201.54 57.0645 203.538 55.9746 205.031C54.9251 206.484 53.8151 207.514 52.6445 208.119C51.5143 208.765 50.3841 209.088 49.2539 209.088C46.7917 209.088 44.5716 208.24 42.5938 206.545C40.6562 204.89 39.0013 202.69 37.6289 199.945C36.2565 197.16 35.207 193.992 34.4805 190.439C33.7539 186.847 33.3906 183.154 33.3906 179.359C33.3906 173.91 33.8952 168.279 34.9043 162.467C35.9134 156.654 37.4069 150.983 39.3848 145.453C41.3626 139.883 43.8047 134.615 46.7109 129.65C49.6172 124.645 52.9674 120.286 56.7617 116.572C60.556 112.818 64.7741 109.852 69.416 107.672C74.0983 105.452 79.1641 104.342 84.6133 104.342C87.7214 104.342 90.5267 104.766 93.0293 105.613C95.5723 106.421 97.7318 107.632 99.5078 109.246C101.284 110.82 102.656 112.758 103.625 115.059C104.594 117.359 105.078 119.983 105.078 122.93Z" fill="white"/>
<path id="o1" d="M143.148 189.594L142.719 190.414C141.833 192.185 140.648 193.604 139.164 194.672C137.706 195.714 136.117 196.391 134.398 196.703C133.93 198.031 133.318 199.268 132.562 200.414C131.833 201.534 130.987 202.51 130.023 203.344C129.086 204.177 128.018 204.828 126.82 205.297C125.648 205.766 124.372 206 122.992 206C120.987 206 119.177 205.583 117.562 204.75C115.974 203.891 114.62 202.745 113.5 201.312C112.38 199.854 111.521 198.161 110.922 196.234C110.323 194.281 110.023 192.198 110.023 189.984C110.023 188.057 110.245 186.312 110.688 184.75C111.13 183.161 111.69 181.755 112.367 180.531C113.044 179.281 113.799 178.201 114.633 177.289C115.466 176.352 116.286 175.583 117.094 174.984C117.901 174.385 118.63 173.943 119.281 173.656C119.958 173.344 120.466 173.188 120.805 173.188L121.312 174.555C120.245 175.336 119.294 176.43 118.461 177.836C117.732 179.034 117.068 180.622 116.469 182.602C115.896 184.581 115.609 187.042 115.609 189.984C115.609 191.781 115.779 193.526 116.117 195.219C116.456 196.911 116.951 198.409 117.602 199.711C118.253 201.013 119.047 202.055 119.984 202.836C120.948 203.617 122.029 204.008 123.227 204.008C124.867 204.008 126.221 203.357 127.289 202.055C128.383 200.727 129.19 198.917 129.711 196.625C128.357 196.339 127.068 195.805 125.844 195.023C124.62 194.242 123.539 193.279 122.602 192.133C121.664 190.961 120.909 189.62 120.336 188.109C119.789 186.599 119.516 184.958 119.516 183.188C119.516 181.729 119.698 180.453 120.062 179.359C120.453 178.24 120.961 177.315 121.586 176.586C122.211 175.831 122.927 175.271 123.734 174.906C124.568 174.516 125.44 174.32 126.352 174.32C127.419 174.32 128.513 174.633 129.633 175.258C130.753 175.857 131.768 176.768 132.68 177.992C133.591 179.19 134.333 180.701 134.906 182.523C135.479 184.346 135.766 186.469 135.766 188.891C135.766 189.802 135.714 190.701 135.609 191.586C135.505 192.471 135.349 193.331 135.141 194.164C136.391 193.799 137.523 193.214 138.539 192.406C139.581 191.599 140.44 190.531 141.117 189.203L141.547 188.383L143.148 189.594ZM122.094 182.875C122.094 184.411 122.302 185.831 122.719 187.133C123.161 188.409 123.747 189.542 124.477 190.531C125.206 191.495 126.052 192.302 127.016 192.953C127.979 193.604 129.008 194.06 130.102 194.32C130.232 193.591 130.31 192.836 130.336 192.055C130.388 191.247 130.414 190.427 130.414 189.594C130.414 187.745 130.271 186.078 129.984 184.594C129.698 183.083 129.32 181.807 128.852 180.766C128.383 179.698 127.836 178.878 127.211 178.305C126.586 177.732 125.948 177.445 125.297 177.445C124.411 177.445 123.656 177.927 123.031 178.891C122.406 179.828 122.094 181.156 122.094 182.875Z" fill="white"/>
<path id="o2" d="M175.148 189.594L174.719 190.414C173.833 192.185 172.648 193.604 171.164 194.672C169.706 195.714 168.117 196.391 166.398 196.703C165.93 198.031 165.318 199.268 164.562 200.414C163.833 201.534 162.987 202.51 162.023 203.344C161.086 204.177 160.018 204.828 158.82 205.297C157.648 205.766 156.372 206 154.992 206C152.987 206 151.177 205.583 149.562 204.75C147.974 203.891 146.62 202.745 145.5 201.312C144.38 199.854 143.521 198.161 142.922 196.234C142.323 194.281 142.023 192.198 142.023 189.984C142.023 188.057 142.245 186.312 142.688 184.75C143.13 183.161 143.69 181.755 144.367 180.531C145.044 179.281 145.799 178.201 146.633 177.289C147.466 176.352 148.286 175.583 149.094 174.984C149.901 174.385 150.63 173.943 151.281 173.656C151.958 173.344 152.466 173.188 152.805 173.188L153.312 174.555C152.245 175.336 151.294 176.43 150.461 177.836C149.732 179.034 149.068 180.622 148.469 182.602C147.896 184.581 147.609 187.042 147.609 189.984C147.609 191.781 147.779 193.526 148.117 195.219C148.456 196.911 148.951 198.409 149.602 199.711C150.253 201.013 151.047 202.055 151.984 202.836C152.948 203.617 154.029 204.008 155.227 204.008C156.867 204.008 158.221 203.357 159.289 202.055C160.383 200.727 161.19 198.917 161.711 196.625C160.357 196.339 159.068 195.805 157.844 195.023C156.62 194.242 155.539 193.279 154.602 192.133C153.664 190.961 152.909 189.62 152.336 188.109C151.789 186.599 151.516 184.958 151.516 183.188C151.516 181.729 151.698 180.453 152.062 179.359C152.453 178.24 152.961 177.315 153.586 176.586C154.211 175.831 154.927 175.271 155.734 174.906C156.568 174.516 157.44 174.32 158.352 174.32C159.419 174.32 160.513 174.633 161.633 175.258C162.753 175.857 163.768 176.768 164.68 177.992C165.591 179.19 166.333 180.701 166.906 182.523C167.479 184.346 167.766 186.469 167.766 188.891C167.766 189.802 167.714 190.701 167.609 191.586C167.505 192.471 167.349 193.331 167.141 194.164C168.391 193.799 169.523 193.214 170.539 192.406C171.581 191.599 172.44 190.531 173.117 189.203L173.547 188.383L175.148 189.594ZM154.094 182.875C154.094 184.411 154.302 185.831 154.719 187.133C155.161 188.409 155.747 189.542 156.477 190.531C157.206 191.495 158.052 192.302 159.016 192.953C159.979 193.604 161.008 194.06 162.102 194.32C162.232 193.591 162.31 192.836 162.336 192.055C162.388 191.247 162.414 190.427 162.414 189.594C162.414 187.745 162.271 186.078 161.984 184.594C161.698 183.083 161.32 181.807 160.852 180.766C160.383 179.698 159.836 178.878 159.211 178.305C158.586 177.732 157.948 177.445 157.297 177.445C156.411 177.445 155.656 177.927 155.031 178.891C154.406 179.828 154.094 181.156 154.094 182.875Z" fill="white"/>
<path id="k" d="M207.305 189.594L206.914 190.414C205.82 192.602 204.779 194.646 203.789 196.547C202.799 198.448 201.81 200.102 200.82 201.508C199.831 202.914 198.815 204.021 197.773 204.828C196.758 205.609 195.664 206 194.492 206C193.32 206 192.174 205.688 191.055 205.062C189.935 204.438 188.815 203.565 187.695 202.445C186.602 201.326 185.495 200.023 184.375 198.539C183.281 197.029 182.148 195.388 180.977 193.617L179.609 193.852C179.557 196.143 179.479 198.214 179.375 200.062C179.271 201.885 179.141 203.383 178.984 204.555C178.906 205.076 178.685 205.453 178.32 205.688C177.982 205.896 177.513 206 176.914 206C176.211 206 175.625 205.909 175.156 205.727C174.688 205.544 174.323 205.323 174.062 205.062C173.776 204.776 173.581 204.477 173.477 204.164C173.346 203.826 173.281 203.5 173.281 203.188C173.281 201.521 173.555 199.451 174.102 196.977V176.781C174.102 171.781 174.362 167.458 174.883 163.812C175.404 160.141 176.107 157.107 176.992 154.711C177.878 152.289 178.906 150.505 180.078 149.359C181.276 148.188 182.539 147.602 183.867 147.602C185.299 147.602 186.315 148.07 186.914 149.008C187.539 149.919 187.852 151.182 187.852 152.797C187.852 154.203 187.643 156.013 187.227 158.227C186.81 160.414 186.224 162.823 185.469 165.453C184.74 168.083 183.88 170.831 182.891 173.695C181.901 176.534 180.833 179.307 179.688 182.016V182.875C180.417 181.703 181.263 180.583 182.227 179.516C183.216 178.448 184.271 177.51 185.391 176.703C186.51 175.87 187.656 175.219 188.828 174.75C190.026 174.255 191.198 174.008 192.344 174.008C193.359 174.008 194.284 174.151 195.117 174.438C195.977 174.724 196.719 175.141 197.344 175.688C197.969 176.234 198.451 176.924 198.789 177.758C199.128 178.565 199.297 179.503 199.297 180.57C199.297 181.664 199.049 182.758 198.555 183.852C198.086 184.945 197.331 186 196.289 187.016C195.273 188.031 193.958 188.995 192.344 189.906C190.729 190.792 188.776 191.573 186.484 192.25C186.641 192.484 186.901 192.875 187.266 193.422C187.63 193.969 188.06 194.594 188.555 195.297C189.076 195.974 189.635 196.69 190.234 197.445C190.833 198.174 191.445 198.852 192.07 199.477C192.721 200.076 193.359 200.583 193.984 201C194.609 201.391 195.182 201.586 195.703 201.586C196.406 201.586 197.122 201.299 197.852 200.727C198.581 200.128 199.336 199.294 200.117 198.227C200.924 197.133 201.758 195.831 202.617 194.32C203.477 192.784 204.375 191.078 205.312 189.203L205.703 188.383L207.305 189.594ZM179.688 186.234C179.688 186.833 179.674 187.367 179.648 187.836C179.648 188.279 179.648 188.721 179.648 189.164C179.648 189.581 179.635 190.01 179.609 190.453C179.609 190.896 179.609 191.391 179.609 191.938C182.266 191.547 184.505 191.026 186.328 190.375C188.177 189.724 189.674 188.969 190.82 188.109C191.966 187.25 192.799 186.312 193.32 185.297C193.841 184.255 194.102 183.161 194.102 182.016C194.102 181.417 193.997 180.844 193.789 180.297C193.607 179.724 193.333 179.229 192.969 178.812C192.604 178.37 192.148 178.018 191.602 177.758C191.081 177.497 190.495 177.367 189.844 177.367C188.932 177.367 188.008 177.615 187.07 178.109C186.159 178.578 185.247 179.216 184.336 180.023C183.451 180.831 182.604 181.781 181.797 182.875C181.016 183.943 180.312 185.062 179.688 186.234ZM183.125 149.594C182.578 149.594 182.096 150.128 181.68 151.195C181.289 152.263 180.951 153.93 180.664 156.195C180.378 158.435 180.143 161.299 179.961 164.789C179.779 168.253 179.635 172.393 179.531 177.211C180.625 174.32 181.51 171.612 182.188 169.086C182.865 166.534 183.385 164.242 183.75 162.211C184.141 160.154 184.401 158.37 184.531 156.859C184.661 155.323 184.727 154.099 184.727 153.188C184.727 151.807 184.596 150.87 184.336 150.375C184.102 149.854 183.698 149.594 183.125 149.594Z" fill="white"/>
<path id="S" d="M236.254 150.58C237.003 150.027 237.67 149.359 238.256 148.578C238.874 147.797 239.395 146.951 239.818 146.039C240.242 145.128 240.567 144.167 240.795 143.158C241.023 142.149 241.137 141.124 241.137 140.082C241.137 138.52 240.86 136.973 240.307 135.443C239.786 133.881 238.923 132.481 237.719 131.244C236.547 129.975 235.017 128.949 233.129 128.168C231.241 127.387 228.946 126.996 226.244 126.996C223.249 126.996 220.417 127.484 217.748 128.461C215.079 129.438 212.735 130.756 210.717 132.416C208.731 134.076 207.152 135.997 205.98 138.178C204.809 140.359 204.223 142.637 204.223 145.014C204.223 147.52 204.809 149.75 205.98 151.703C207.185 153.624 208.747 155.382 210.668 156.977C212.621 158.539 214.835 159.988 217.309 161.322C219.783 162.657 222.305 163.975 224.877 165.277C227.449 166.579 229.971 167.947 232.445 169.379C234.919 170.779 237.117 172.357 239.037 174.115C240.99 175.873 242.553 177.842 243.725 180.023C244.929 182.204 245.531 184.727 245.531 187.592C245.531 190.326 244.88 192.947 243.578 195.453C242.276 197.96 240.486 200.189 238.207 202.143C235.928 204.063 233.243 205.593 230.15 206.732C227.09 207.904 223.786 208.49 220.238 208.49C216.267 208.49 212.979 208.051 210.375 207.172C207.803 206.326 205.753 205.251 204.223 203.949C202.725 202.647 201.684 201.247 201.098 199.75C200.512 198.22 200.219 196.804 200.219 195.502C200.219 193.907 200.463 192.475 200.951 191.205C201.472 189.903 202.156 188.747 203.002 187.738C203.848 186.697 204.792 185.801 205.834 185.053C206.908 184.271 207.999 183.62 209.105 183.1C210.245 182.546 211.335 182.107 212.377 181.781C213.451 181.423 214.411 181.163 215.258 181L215.746 183.49C215.355 183.62 214.639 183.946 213.598 184.467C212.589 184.955 211.531 185.688 210.424 186.664C209.317 187.608 208.34 188.796 207.494 190.229C206.648 191.661 206.225 193.354 206.225 195.307C206.225 196.641 206.501 197.943 207.055 199.213C207.641 200.482 208.503 201.622 209.643 202.631C210.782 203.64 212.182 204.454 213.842 205.072C215.502 205.691 217.439 206 219.652 206C222.322 206 224.649 205.756 226.635 205.268C228.653 204.747 230.378 204.079 231.811 203.266C233.275 202.452 234.464 201.524 235.375 200.482C236.319 199.408 237.051 198.301 237.572 197.162C238.126 196.023 238.5 194.9 238.695 193.793C238.923 192.654 239.037 191.628 239.037 190.717C239.037 188.243 238.467 186.078 237.328 184.223C236.189 182.335 234.675 180.658 232.787 179.193C230.932 177.696 228.816 176.345 226.439 175.141C224.063 173.904 221.622 172.683 219.115 171.479C216.641 170.274 214.216 169.021 211.84 167.719C209.464 166.417 207.331 164.936 205.443 163.275C203.588 161.615 202.09 159.727 200.951 157.611C199.812 155.463 199.242 152.956 199.242 150.092C199.242 146.251 200.04 142.735 201.635 139.545C203.23 136.322 205.378 133.572 208.08 131.293C210.782 128.982 213.907 127.191 217.455 125.922C221.036 124.652 224.796 124.018 228.734 124.018C232.087 124.018 234.952 124.408 237.328 125.189C239.704 125.971 241.641 126.996 243.139 128.266C244.669 129.535 245.775 130.984 246.459 132.611C247.175 134.239 247.533 135.899 247.533 137.592C247.533 139.61 247.175 141.449 246.459 143.109C245.775 144.77 244.929 146.251 243.92 147.553C242.943 148.822 241.885 149.896 240.746 150.775C239.607 151.622 238.598 152.224 237.719 152.582L236.254 150.58Z" fill="white"/>
<path id="O" d="M256.979 158.783C256.979 156.407 257.19 153.9 257.613 151.264C258.036 148.594 258.688 145.974 259.566 143.402C260.478 140.831 261.601 138.373 262.936 136.029C264.303 133.686 265.914 131.635 267.77 129.877C269.625 128.087 271.725 126.671 274.068 125.629C276.445 124.555 279.081 124.018 281.979 124.018C284.941 124.018 287.643 124.522 290.084 125.531C292.525 126.508 294.706 127.891 296.627 129.682C298.548 131.439 300.224 133.539 301.656 135.98C303.121 138.422 304.326 141.091 305.27 143.988C306.214 146.885 306.913 149.962 307.369 153.217C307.857 156.439 308.102 159.727 308.102 163.08C308.102 166.791 307.792 170.486 307.174 174.164C306.588 177.842 305.693 181.374 304.488 184.76C303.316 188.113 301.835 191.238 300.045 194.135C298.255 197.032 296.171 199.538 293.795 201.654C291.419 203.77 288.733 205.43 285.738 206.635C282.776 207.872 279.521 208.49 275.973 208.49C272.652 208.49 269.544 207.969 266.646 206.928C263.749 205.919 261.096 204.486 258.688 202.631C256.279 200.743 254.13 198.513 252.242 195.941C250.354 193.337 248.759 190.489 247.457 187.396C246.188 184.271 245.211 180.951 244.527 177.436C243.844 173.887 243.502 170.242 243.502 166.498C243.502 162.82 243.827 159.402 244.479 156.244C245.162 153.087 246.057 150.173 247.164 147.504C248.271 144.835 249.524 142.41 250.924 140.229C252.356 138.048 253.837 136.094 255.367 134.369C256.897 132.644 258.411 131.146 259.908 129.877C261.406 128.607 262.789 127.549 264.059 126.703L266.158 128.119C263.912 129.942 261.878 132.188 260.055 134.857C258.264 137.527 256.718 140.521 255.416 143.842C254.146 147.162 253.17 150.743 252.486 154.584C251.803 158.393 251.461 162.364 251.461 166.498C251.461 173.497 252.145 179.486 253.512 184.467C254.911 189.447 256.751 193.533 259.029 196.723C261.308 199.913 263.912 202.257 266.842 203.754C269.804 205.251 272.848 206 275.973 206C279.358 206 282.499 205.251 285.396 203.754C288.294 202.257 290.8 199.913 292.916 196.723C295.064 193.533 296.741 189.447 297.945 184.467C299.182 179.486 299.801 173.497 299.801 166.498C299.801 159.792 299.28 153.965 298.238 149.018C297.229 144.07 295.829 139.984 294.039 136.762C292.281 133.507 290.214 131.081 287.838 129.486C285.462 127.891 282.939 127.094 280.27 127.094C278.186 127.094 276.314 127.566 274.654 128.51C272.994 129.454 271.529 130.756 270.26 132.416C269.023 134.044 267.949 135.964 267.037 138.178C266.126 140.359 265.377 142.702 264.791 145.209C264.238 147.715 263.831 150.303 263.57 152.973C263.31 155.609 263.18 158.214 263.18 160.785C263.18 163.845 263.277 166.433 263.473 168.549C263.668 170.632 263.896 172.325 264.156 173.627C264.449 175.157 264.791 176.378 265.182 177.289L262.301 178.021C261.845 177.501 261.308 176.768 260.689 175.824C260.104 174.88 259.534 173.643 258.98 172.113C258.427 170.583 257.955 168.728 257.564 166.547C257.174 164.366 256.979 161.778 256.979 158.783Z" fill="white"/>
</g>
<defs>
<filter id="filter0_bf" x="-152" y="-152" width="642" height="642" filterUnits="userSpaceOnUse" color-interpolation-filters="sRGB">
<feFlood flood-opacity="0" result="BackgroundImageFix"/>
<feGaussianBlur in="BackgroundImage" stdDeviation="81.5"/>
<feComposite in2="SourceAlpha" operator="in" result="effect1_backgroundBlur"/>
<feBlend mode="normal" in="SourceGraphic" in2="effect1_backgroundBlur" result="shape"/>
<feGaussianBlur stdDeviation="5.5" result="effect2_foregroundBlur"/>
</filter>
</defs>
</svg>
