<svg width="120" height="120" viewBox="0 0 340 340" fill="none" xmlns="http://www.w3.org/2000/svg">
<circle id="Okrag" cx="150" cy="150" r="150" fill="#273877"/>
<g id="Tekst">
<path id="B" d="M86.0781 103.93C86.0781 107.522 85.3717 110.913 83.959 114.102C82.5462 117.25 80.75 120.156 78.5703 122.82C76.431 125.484 74.0697 127.906 71.4863 130.086C68.9434 132.225 66.5215 134.082 64.2207 135.656C67.4499 135.939 70.6589 136.726 73.8477 138.018C77.0768 139.269 79.9629 141.025 82.5059 143.285C85.0892 145.505 87.168 148.21 88.7422 151.398C90.3568 154.547 91.1641 158.139 91.1641 162.176C91.1641 165.486 90.6797 168.473 89.7109 171.137C88.7826 173.76 87.5312 176.122 85.957 178.221C84.3828 180.279 82.5866 182.055 80.5684 183.549C78.5905 185.042 76.5723 186.273 74.5137 187.242C72.4551 188.211 70.4167 188.917 68.3984 189.361C66.4206 189.846 64.6647 190.088 63.1309 190.088C59.2559 190.088 56.0267 189.624 53.4434 188.695C50.9004 187.767 48.862 186.637 47.3281 185.305C45.8346 183.932 44.7852 182.499 44.1797 181.006C43.5742 179.512 43.2715 178.201 43.2715 177.07C43.2715 175.335 43.6348 173.68 44.3613 172.105C45.1283 170.491 46.1374 169.038 47.3887 167.746C48.64 166.454 50.0931 165.324 51.748 164.355C53.403 163.346 55.1185 162.579 56.8945 162.055L58.166 164.053C55.623 165.425 53.7461 167.201 52.5352 169.381C51.3242 171.52 50.7188 173.68 50.7188 175.859C50.7188 177.07 50.9609 178.342 51.4453 179.674C51.9701 180.965 52.737 182.156 53.7461 183.246C54.7956 184.336 56.0872 185.244 57.6211 185.971C59.1953 186.657 61.0319 187 63.1309 187C66.1986 187 69.0645 186.435 71.7285 185.305C74.3926 184.134 76.6934 182.54 78.6309 180.521C80.6087 178.463 82.1426 176.061 83.2324 173.316C84.3626 170.572 84.9277 167.605 84.9277 164.416C84.9277 161.146 84.2415 158.26 82.8691 155.758C81.5371 153.255 79.7409 151.156 77.4805 149.461C75.2604 147.725 72.6771 146.413 69.7305 145.525C66.8242 144.637 63.7969 144.193 60.6484 144.193C59.3568 144.193 58.0853 144.274 56.834 144.436C55.5827 144.557 54.3919 144.738 53.2617 144.98C52.1719 145.182 51.1829 145.384 50.2949 145.586C49.4069 145.788 48.7207 145.949 48.2363 146.07L47.6309 145.465L53.2012 136.807C53.6452 136.686 54.1497 136.544 54.7148 136.383C55.1992 136.262 55.7845 136.141 56.4707 136.02C57.1569 135.858 57.9238 135.737 58.7715 135.656C60.709 134.486 62.7272 133.012 64.8262 131.236C66.9655 129.42 68.903 127.341 70.6387 125C72.4147 122.618 73.8678 119.954 74.998 117.008C76.1686 114.061 76.7539 110.852 76.7539 107.381C76.7539 101.528 75.3613 97.1081 72.5762 94.1211C69.791 91.1341 65.8151 89.6406 60.6484 89.6406C57.6615 89.6406 54.6543 90.2865 51.627 91.5781C48.5996 92.8294 45.6732 94.7669 42.8477 97.3906C40.0625 100.014 37.4388 103.324 34.9766 107.32C32.5547 111.316 30.4355 116.019 28.6191 121.428C26.8431 126.837 25.4303 132.992 24.3809 139.895C23.3314 146.797 22.8066 154.446 22.8066 162.842C22.8066 166.313 22.9479 169.522 23.2305 172.469C23.5534 175.415 24.0176 177.979 24.623 180.158C25.2689 182.298 26.056 183.973 26.9844 185.184C27.9128 186.395 29.0026 187 30.2539 187C31.5052 187 32.4941 186.092 33.2207 184.275C33.9876 182.419 34.5527 180.017 34.916 177.07C35.3197 174.083 35.5618 170.753 35.6426 167.08C35.7637 163.407 35.8242 159.714 35.8242 156C35.8242 150.349 35.7435 145.041 35.582 140.076C35.4206 135.071 35.2389 130.611 35.0371 126.695C34.8757 122.78 34.7142 119.51 34.5527 116.887C34.3913 114.263 34.2904 112.507 34.25 111.619L41.2734 109.5C41.4753 109.823 41.7578 110.792 42.1211 112.406C42.4844 114.021 42.8477 116.16 43.2109 118.824C43.5742 121.448 43.877 124.516 44.1191 128.027C44.4017 131.499 44.543 135.253 44.543 139.289C44.543 146.111 44.3411 152.105 43.9375 157.271C43.5742 162.398 43.0495 166.858 42.3633 170.652C41.6771 174.406 40.8698 177.535 39.9414 180.037C39.0534 182.54 38.0645 184.538 36.9746 186.031C35.9251 187.484 34.8151 188.514 33.6445 189.119C32.5143 189.765 31.3841 190.088 30.2539 190.088C27.7917 190.088 25.5716 189.24 23.5938 187.545C21.6562 185.89 20.0013 183.69 18.6289 180.945C17.2565 178.16 16.207 174.992 15.4805 171.439C14.7539 167.847 14.3906 164.154 14.3906 160.359C14.3906 154.91 14.8952 149.279 15.9043 143.467C16.9134 137.654 18.4069 131.983 20.3848 126.453C22.3626 120.883 24.8047 115.615 27.7109 110.65C30.6172 105.645 33.9674 101.286 37.7617 97.5723C41.556 93.8184 45.7741 90.8516 50.416 88.6719C55.0983 86.4518 60.1641 85.3418 65.6133 85.3418C68.7214 85.3418 71.5267 85.7656 74.0293 86.6133C76.5723 87.4206 78.7318 88.6315 80.5078 90.2461C82.2839 91.8203 83.6562 93.7578 84.625 96.0586C85.5938 98.3594 86.0781 100.983 86.0781 103.93Z" fill="white"/>
<path id="o1" d="M124.148 170.594L123.719 171.414C122.833 173.185 121.648 174.604 120.164 175.672C118.706 176.714 117.117 177.391 115.398 177.703C114.93 179.031 114.318 180.268 113.562 181.414C112.833 182.534 111.987 183.51 111.023 184.344C110.086 185.177 109.018 185.828 107.82 186.297C106.648 186.766 105.372 187 103.992 187C101.987 187 100.177 186.583 98.5625 185.75C96.974 184.891 95.6198 183.745 94.5 182.312C93.3802 180.854 92.5208 179.161 91.9219 177.234C91.3229 175.281 91.0234 173.198 91.0234 170.984C91.0234 169.057 91.2448 167.312 91.6875 165.75C92.1302 164.161 92.6901 162.755 93.3672 161.531C94.0443 160.281 94.7995 159.201 95.6328 158.289C96.4661 157.352 97.2865 156.583 98.0938 155.984C98.901 155.385 99.6302 154.943 100.281 154.656C100.958 154.344 101.466 154.188 101.805 154.188L102.312 155.555C101.245 156.336 100.294 157.43 99.4609 158.836C98.7318 160.034 98.0677 161.622 97.4688 163.602C96.8958 165.581 96.6094 168.042 96.6094 170.984C96.6094 172.781 96.7786 174.526 97.1172 176.219C97.4557 177.911 97.9505 179.409 98.6016 180.711C99.2526 182.013 100.047 183.055 100.984 183.836C101.948 184.617 103.029 185.008 104.227 185.008C105.867 185.008 107.221 184.357 108.289 183.055C109.383 181.727 110.19 179.917 110.711 177.625C109.357 177.339 108.068 176.805 106.844 176.023C105.62 175.242 104.539 174.279 103.602 173.133C102.664 171.961 101.909 170.62 101.336 169.109C100.789 167.599 100.516 165.958 100.516 164.188C100.516 162.729 100.698 161.453 101.062 160.359C101.453 159.24 101.961 158.315 102.586 157.586C103.211 156.831 103.927 156.271 104.734 155.906C105.568 155.516 106.44 155.32 107.352 155.32C108.419 155.32 109.513 155.633 110.633 156.258C111.753 156.857 112.768 157.768 113.68 158.992C114.591 160.19 115.333 161.701 115.906 163.523C116.479 165.346 116.766 167.469 116.766 169.891C116.766 170.802 116.714 171.701 116.609 172.586C116.505 173.471 116.349 174.331 116.141 175.164C117.391 174.799 118.523 174.214 119.539 173.406C120.581 172.599 121.44 171.531 122.117 170.203L122.547 169.383L124.148 170.594ZM103.094 163.875C103.094 165.411 103.302 166.831 103.719 168.133C104.161 169.409 104.747 170.542 105.477 171.531C106.206 172.495 107.052 173.302 108.016 173.953C108.979 174.604 110.008 175.06 111.102 175.32C111.232 174.591 111.31 173.836 111.336 173.055C111.388 172.247 111.414 171.427 111.414 170.594C111.414 168.745 111.271 167.078 110.984 165.594C110.698 164.083 110.32 162.807 109.852 161.766C109.383 160.698 108.836 159.878 108.211 159.305C107.586 158.732 106.948 158.445 106.297 158.445C105.411 158.445 104.656 158.927 104.031 159.891C103.406 160.828 103.094 162.156 103.094 163.875Z" fill="white"/>
<path id="o2" d="M156.148 170.594L155.719 171.414C154.833 173.185 153.648 174.604 152.164 175.672C150.706 176.714 149.117 177.391 147.398 177.703C146.93 179.031 146.318 180.268 145.562 181.414C144.833 182.534 143.987 183.51 143.023 184.344C142.086 185.177 141.018 185.828 139.82 186.297C138.648 186.766 137.372 187 135.992 187C133.987 187 132.177 186.583 130.562 185.75C128.974 184.891 127.62 183.745 126.5 182.312C125.38 180.854 124.521 179.161 123.922 177.234C123.323 175.281 123.023 173.198 123.023 170.984C123.023 169.057 123.245 167.312 123.688 165.75C124.13 164.161 124.69 162.755 125.367 161.531C126.044 160.281 126.799 159.201 127.633 158.289C128.466 157.352 129.286 156.583 130.094 155.984C130.901 155.385 131.63 154.943 132.281 154.656C132.958 154.344 133.466 154.188 133.805 154.188L134.312 155.555C133.245 156.336 132.294 157.43 131.461 158.836C130.732 160.034 130.068 161.622 129.469 163.602C128.896 165.581 128.609 168.042 128.609 170.984C128.609 172.781 128.779 174.526 129.117 176.219C129.456 177.911 129.951 179.409 130.602 180.711C131.253 182.013 132.047 183.055 132.984 183.836C133.948 184.617 135.029 185.008 136.227 185.008C137.867 185.008 139.221 184.357 140.289 183.055C141.383 181.727 142.19 179.917 142.711 177.625C141.357 177.339 140.068 176.805 138.844 176.023C137.62 175.242 136.539 174.279 135.602 173.133C134.664 171.961 133.909 170.62 133.336 169.109C132.789 167.599 132.516 165.958 132.516 164.188C132.516 162.729 132.698 161.453 133.062 160.359C133.453 159.24 133.961 158.315 134.586 157.586C135.211 156.831 135.927 156.271 136.734 155.906C137.568 155.516 138.44 155.32 139.352 155.32C140.419 155.32 141.513 155.633 142.633 156.258C143.753 156.857 144.768 157.768 145.68 158.992C146.591 160.19 147.333 161.701 147.906 163.523C148.479 165.346 148.766 167.469 148.766 169.891C148.766 170.802 148.714 171.701 148.609 172.586C148.505 173.471 148.349 174.331 148.141 175.164C149.391 174.799 150.523 174.214 151.539 173.406C152.581 172.599 153.44 171.531 154.117 170.203L154.547 169.383L156.148 170.594ZM135.094 163.875C135.094 165.411 135.302 166.831 135.719 168.133C136.161 169.409 136.747 170.542 137.477 171.531C138.206 172.495 139.052 173.302 140.016 173.953C140.979 174.604 142.008 175.06 143.102 175.32C143.232 174.591 143.31 173.836 143.336 173.055C143.388 172.247 143.414 171.427 143.414 170.594C143.414 168.745 143.271 167.078 142.984 165.594C142.698 164.083 142.32 162.807 141.852 161.766C141.383 160.698 140.836 159.878 140.211 159.305C139.586 158.732 138.948 158.445 138.297 158.445C137.411 158.445 136.656 158.927 136.031 159.891C135.406 160.828 135.094 162.156 135.094 163.875Z" fill="white"/>
<path id="k" d="M188.305 170.594L187.914 171.414C186.82 173.602 185.779 175.646 184.789 177.547C183.799 179.448 182.81 181.102 181.82 182.508C180.831 183.914 179.815 185.021 178.773 185.828C177.758 186.609 176.664 187 175.492 187C174.32 187 173.174 186.688 172.055 186.062C170.935 185.438 169.815 184.565 168.695 183.445C167.602 182.326 166.495 181.023 165.375 179.539C164.281 178.029 163.148 176.388 161.977 174.617L160.609 174.852C160.557 177.143 160.479 179.214 160.375 181.062C160.271 182.885 160.141 184.383 159.984 185.555C159.906 186.076 159.685 186.453 159.32 186.688C158.982 186.896 158.513 187 157.914 187C157.211 187 156.625 186.909 156.156 186.727C155.688 186.544 155.323 186.323 155.062 186.062C154.776 185.776 154.581 185.477 154.477 185.164C154.346 184.826 154.281 184.5 154.281 184.188C154.281 182.521 154.555 180.451 155.102 177.977V157.781C155.102 152.781 155.362 148.458 155.883 144.812C156.404 141.141 157.107 138.107 157.992 135.711C158.878 133.289 159.906 131.505 161.078 130.359C162.276 129.188 163.539 128.602 164.867 128.602C166.299 128.602 167.315 129.07 167.914 130.008C168.539 130.919 168.852 132.182 168.852 133.797C168.852 135.203 168.643 137.013 168.227 139.227C167.81 141.414 167.224 143.823 166.469 146.453C165.74 149.083 164.88 151.831 163.891 154.695C162.901 157.534 161.833 160.307 160.688 163.016V163.875C161.417 162.703 162.263 161.583 163.227 160.516C164.216 159.448 165.271 158.51 166.391 157.703C167.51 156.87 168.656 156.219 169.828 155.75C171.026 155.255 172.198 155.008 173.344 155.008C174.359 155.008 175.284 155.151 176.117 155.438C176.977 155.724 177.719 156.141 178.344 156.688C178.969 157.234 179.451 157.924 179.789 158.758C180.128 159.565 180.297 160.503 180.297 161.57C180.297 162.664 180.049 163.758 179.555 164.852C179.086 165.945 178.331 167 177.289 168.016C176.273 169.031 174.958 169.995 173.344 170.906C171.729 171.792 169.776 172.573 167.484 173.25C167.641 173.484 167.901 173.875 168.266 174.422C168.63 174.969 169.06 175.594 169.555 176.297C170.076 176.974 170.635 177.69 171.234 178.445C171.833 179.174 172.445 179.852 173.07 180.477C173.721 181.076 174.359 181.583 174.984 182C175.609 182.391 176.182 182.586 176.703 182.586C177.406 182.586 178.122 182.299 178.852 181.727C179.581 181.128 180.336 180.294 181.117 179.227C181.924 178.133 182.758 176.831 183.617 175.32C184.477 173.784 185.375 172.078 186.312 170.203L186.703 169.383L188.305 170.594ZM160.688 167.234C160.688 167.833 160.674 168.367 160.648 168.836C160.648 169.279 160.648 169.721 160.648 170.164C160.648 170.581 160.635 171.01 160.609 171.453C160.609 171.896 160.609 172.391 160.609 172.938C163.266 172.547 165.505 172.026 167.328 171.375C169.177 170.724 170.674 169.969 171.82 169.109C172.966 168.25 173.799 167.312 174.32 166.297C174.841 165.255 175.102 164.161 175.102 163.016C175.102 162.417 174.997 161.844 174.789 161.297C174.607 160.724 174.333 160.229 173.969 159.812C173.604 159.37 173.148 159.018 172.602 158.758C172.081 158.497 171.495 158.367 170.844 158.367C169.932 158.367 169.008 158.615 168.07 159.109C167.159 159.578 166.247 160.216 165.336 161.023C164.451 161.831 163.604 162.781 162.797 163.875C162.016 164.943 161.312 166.062 160.688 167.234ZM164.125 130.594C163.578 130.594 163.096 131.128 162.68 132.195C162.289 133.263 161.951 134.93 161.664 137.195C161.378 139.435 161.143 142.299 160.961 145.789C160.779 149.253 160.635 153.393 160.531 158.211C161.625 155.32 162.51 152.612 163.188 150.086C163.865 147.534 164.385 145.242 164.75 143.211C165.141 141.154 165.401 139.37 165.531 137.859C165.661 136.323 165.727 135.099 165.727 134.188C165.727 132.807 165.596 131.87 165.336 131.375C165.102 130.854 164.698 130.594 164.125 130.594Z" fill="white"/>
<path id="S" d="M217.254 131.58C218.003 131.027 218.67 130.359 219.256 129.578C219.874 128.797 220.395 127.951 220.818 127.039C221.242 126.128 221.567 125.167 221.795 124.158C222.023 123.149 222.137 122.124 222.137 121.082C222.137 119.52 221.86 117.973 221.307 116.443C220.786 114.881 219.923 113.481 218.719 112.244C217.547 110.975 216.017 109.949 214.129 109.168C212.241 108.387 209.946 107.996 207.244 107.996C204.249 107.996 201.417 108.484 198.748 109.461C196.079 110.438 193.735 111.756 191.717 113.416C189.731 115.076 188.152 116.997 186.98 119.178C185.809 121.359 185.223 123.637 185.223 126.014C185.223 128.52 185.809 130.75 186.98 132.703C188.185 134.624 189.747 136.382 191.668 137.977C193.621 139.539 195.835 140.988 198.309 142.322C200.783 143.657 203.305 144.975 205.877 146.277C208.449 147.579 210.971 148.947 213.445 150.379C215.919 151.779 218.117 153.357 220.037 155.115C221.99 156.873 223.553 158.842 224.725 161.023C225.929 163.204 226.531 165.727 226.531 168.592C226.531 171.326 225.88 173.947 224.578 176.453C223.276 178.96 221.486 181.189 219.207 183.143C216.928 185.063 214.243 186.593 211.15 187.732C208.09 188.904 204.786 189.49 201.238 189.49C197.267 189.49 193.979 189.051 191.375 188.172C188.803 187.326 186.753 186.251 185.223 184.949C183.725 183.647 182.684 182.247 182.098 180.75C181.512 179.22 181.219 177.804 181.219 176.502C181.219 174.907 181.463 173.475 181.951 172.205C182.472 170.903 183.156 169.747 184.002 168.738C184.848 167.697 185.792 166.801 186.834 166.053C187.908 165.271 188.999 164.62 190.105 164.1C191.245 163.546 192.335 163.107 193.377 162.781C194.451 162.423 195.411 162.163 196.258 162L196.746 164.49C196.355 164.62 195.639 164.946 194.598 165.467C193.589 165.955 192.531 166.688 191.424 167.664C190.317 168.608 189.34 169.796 188.494 171.229C187.648 172.661 187.225 174.354 187.225 176.307C187.225 177.641 187.501 178.943 188.055 180.213C188.641 181.482 189.503 182.622 190.643 183.631C191.782 184.64 193.182 185.454 194.842 186.072C196.502 186.691 198.439 187 200.652 187C203.322 187 205.649 186.756 207.635 186.268C209.653 185.747 211.378 185.079 212.811 184.266C214.275 183.452 215.464 182.524 216.375 181.482C217.319 180.408 218.051 179.301 218.572 178.162C219.126 177.023 219.5 175.9 219.695 174.793C219.923 173.654 220.037 172.628 220.037 171.717C220.037 169.243 219.467 167.078 218.328 165.223C217.189 163.335 215.675 161.658 213.787 160.193C211.932 158.696 209.816 157.345 207.439 156.141C205.063 154.904 202.622 153.683 200.115 152.479C197.641 151.274 195.216 150.021 192.84 148.719C190.464 147.417 188.331 145.936 186.443 144.275C184.588 142.615 183.09 140.727 181.951 138.611C180.812 136.463 180.242 133.956 180.242 131.092C180.242 127.251 181.04 123.735 182.635 120.545C184.23 117.322 186.378 114.572 189.08 112.293C191.782 109.982 194.907 108.191 198.455 106.922C202.036 105.652 205.796 105.018 209.734 105.018C213.087 105.018 215.952 105.408 218.328 106.189C220.704 106.971 222.641 107.996 224.139 109.266C225.669 110.535 226.775 111.984 227.459 113.611C228.175 115.239 228.533 116.899 228.533 118.592C228.533 120.61 228.175 122.449 227.459 124.109C226.775 125.77 225.929 127.251 224.92 128.553C223.943 129.822 222.885 130.896 221.746 131.775C220.607 132.622 219.598 133.224 218.719 133.582L217.254 131.58Z" fill="white"/>
<path id="O" d="M237.979 139.783C237.979 137.407 238.19 134.9 238.613 132.264C239.036 129.594 239.688 126.974 240.566 124.402C241.478 121.831 242.601 119.373 243.936 117.029C245.303 114.686 246.914 112.635 248.77 110.877C250.625 109.087 252.725 107.671 255.068 106.629C257.445 105.555 260.081 105.018 262.979 105.018C265.941 105.018 268.643 105.522 271.084 106.531C273.525 107.508 275.706 108.891 277.627 110.682C279.548 112.439 281.224 114.539 282.656 116.98C284.121 119.422 285.326 122.091 286.27 124.988C287.214 127.885 287.913 130.962 288.369 134.217C288.857 137.439 289.102 140.727 289.102 144.08C289.102 147.791 288.792 151.486 288.174 155.164C287.588 158.842 286.693 162.374 285.488 165.76C284.316 169.113 282.835 172.238 281.045 175.135C279.255 178.032 277.171 180.538 274.795 182.654C272.419 184.77 269.733 186.43 266.738 187.635C263.776 188.872 260.521 189.49 256.973 189.49C253.652 189.49 250.544 188.969 247.646 187.928C244.749 186.919 242.096 185.486 239.688 183.631C237.279 181.743 235.13 179.513 233.242 176.941C231.354 174.337 229.759 171.489 228.457 168.396C227.188 165.271 226.211 161.951 225.527 158.436C224.844 154.887 224.502 151.242 224.502 147.498C224.502 143.82 224.827 140.402 225.479 137.244C226.162 134.087 227.057 131.173 228.164 128.504C229.271 125.835 230.524 123.41 231.924 121.229C233.356 119.048 234.837 117.094 236.367 115.369C237.897 113.644 239.411 112.146 240.908 110.877C242.406 109.607 243.789 108.549 245.059 107.703L247.158 109.119C244.912 110.942 242.878 113.188 241.055 115.857C239.264 118.527 237.718 121.521 236.416 124.842C235.146 128.162 234.17 131.743 233.486 135.584C232.803 139.393 232.461 143.364 232.461 147.498C232.461 154.497 233.145 160.486 234.512 165.467C235.911 170.447 237.751 174.533 240.029 177.723C242.308 180.913 244.912 183.257 247.842 184.754C250.804 186.251 253.848 187 256.973 187C260.358 187 263.499 186.251 266.396 184.754C269.294 183.257 271.8 180.913 273.916 177.723C276.064 174.533 277.741 170.447 278.945 165.467C280.182 160.486 280.801 154.497 280.801 147.498C280.801 140.792 280.28 134.965 279.238 130.018C278.229 125.07 276.829 120.984 275.039 117.762C273.281 114.507 271.214 112.081 268.838 110.486C266.462 108.891 263.939 108.094 261.27 108.094C259.186 108.094 257.314 108.566 255.654 109.51C253.994 110.454 252.529 111.756 251.26 113.416C250.023 115.044 248.949 116.964 248.037 119.178C247.126 121.359 246.377 123.702 245.791 126.209C245.238 128.715 244.831 131.303 244.57 133.973C244.31 136.609 244.18 139.214 244.18 141.785C244.18 144.845 244.277 147.433 244.473 149.549C244.668 151.632 244.896 153.325 245.156 154.627C245.449 156.157 245.791 157.378 246.182 158.289L243.301 159.021C242.845 158.501 242.308 157.768 241.689 156.824C241.104 155.88 240.534 154.643 239.98 153.113C239.427 151.583 238.955 149.728 238.564 147.547C238.174 145.366 237.979 142.778 237.979 139.783Z" fill="white"/>
</g>
</svg>
